<svg width="775" height="525" viewBox="0 0 775 525" fill="none" xmlns="http://www.w3.org/2000/svg">
<g id="layer-window">
<rect id="bg" width="772" height="525" fill="white"/>
<g id="option">
<rect id="Rectangle 3" y="388" width="772" height="137" fill="white"/>
<path id="Face" d="M44.2758 439.714V473H39.8636V439.714H44.2758ZM58.2213 454.688V458.3H43.3157V454.688H58.2213ZM60.4846 439.714V443.326H43.3157V439.714H60.4846ZM78.9109 468.771V456.037C78.9109 455.061 78.7128 454.216 78.3165 453.499C77.9355 452.768 77.3563 452.204 76.579 451.807C75.8017 451.411 74.8416 451.213 73.6985 451.213C72.6316 451.213 71.6943 451.396 70.8865 451.762C70.094 452.128 69.4691 452.608 69.0119 453.202C68.5699 453.796 68.3489 454.437 68.3489 455.122H64.1196C64.1196 454.238 64.3482 453.362 64.8054 452.493C65.2626 451.625 65.918 450.84 66.7715 450.139C67.6402 449.422 68.6766 448.858 69.8806 448.447C71.0999 448.02 72.4564 447.807 73.95 447.807C75.7484 447.807 77.3335 448.112 78.7051 448.721C80.0921 449.331 81.1742 450.253 81.9515 451.487C82.744 452.707 83.1403 454.238 83.1403 456.083V467.605C83.1403 468.428 83.2089 469.304 83.346 470.234C83.4984 471.163 83.7194 471.964 84.009 472.634V473H79.5967C79.3834 472.512 79.2157 471.865 79.0938 471.057C78.9719 470.234 78.9109 469.472 78.9109 468.771ZM79.6425 458.003L79.6882 460.975H75.4131C74.2091 460.975 73.1346 461.074 72.1896 461.272C71.2447 461.455 70.4522 461.737 69.8121 462.118C69.1719 462.499 68.6842 462.979 68.3489 463.558C68.0136 464.122 67.846 464.785 67.846 465.547C67.846 466.324 68.0212 467.033 68.3718 467.673C68.7223 468.313 69.2481 468.824 69.9492 469.205C70.6655 469.571 71.5419 469.754 72.5783 469.754C73.8738 469.754 75.0168 469.479 76.0075 468.931C76.9982 468.382 77.7831 467.711 78.3622 466.919C78.9566 466.126 79.2767 465.357 79.3224 464.61L81.1285 466.645C81.0218 467.285 80.7322 467.993 80.2597 468.771C79.7873 469.548 79.1548 470.295 78.3622 471.011C77.5849 471.712 76.6552 472.299 75.5731 472.771C74.5063 473.229 73.3022 473.457 71.961 473.457C70.2845 473.457 68.8138 473.13 67.5488 472.474C66.299 471.819 65.3236 470.942 64.6225 469.845C63.9367 468.733 63.5937 467.49 63.5937 466.119C63.5937 464.793 63.8528 463.627 64.371 462.621C64.8892 461.6 65.636 460.754 66.6115 460.083C67.5869 459.397 68.7604 458.879 70.1321 458.529C71.5038 458.178 73.0355 458.003 74.7273 458.003H79.6425ZM99.6919 469.982C100.698 469.982 101.628 469.777 102.481 469.365C103.335 468.954 104.036 468.39 104.584 467.673C105.133 466.942 105.445 466.111 105.522 465.181H109.545C109.469 466.645 108.974 468.009 108.059 469.274C107.16 470.523 105.979 471.537 104.516 472.314C103.053 473.076 101.445 473.457 99.6919 473.457C97.8325 473.457 96.2094 473.13 94.8225 472.474C93.4508 471.819 92.3077 470.92 91.3932 469.777C90.494 468.633 89.8158 467.323 89.3586 465.844C88.9166 464.351 88.6956 462.773 88.6956 461.112V460.152C88.6956 458.491 88.9166 456.921 89.3586 455.442C89.8158 453.949 90.494 452.63 91.3932 451.487C92.3077 450.344 93.4508 449.445 94.8225 448.79C96.2094 448.134 97.8325 447.807 99.6919 447.807C101.628 447.807 103.319 448.203 104.767 448.996C106.215 449.773 107.351 450.84 108.174 452.196C109.012 453.537 109.469 455.061 109.545 456.768H105.522C105.445 455.747 105.156 454.825 104.653 454.002C104.165 453.179 103.495 452.524 102.641 452.036C101.803 451.533 100.82 451.282 99.6919 451.282C98.3965 451.282 97.3067 451.541 96.4228 452.059C95.554 452.562 94.8606 453.248 94.3424 454.116C93.8394 454.97 93.4736 455.923 93.245 456.974C93.0316 458.011 92.925 459.07 92.925 460.152V461.112C92.925 462.194 93.0316 463.261 93.245 464.313C93.4584 465.364 93.8166 466.317 94.3195 467.17C94.8377 468.024 95.5312 468.71 96.3999 469.228C97.2839 469.731 98.3812 469.982 99.6919 469.982ZM124.565 473.457C122.843 473.457 121.281 473.168 119.879 472.588C118.492 471.994 117.295 471.163 116.289 470.097C115.299 469.03 114.537 467.765 114.003 466.302C113.47 464.838 113.203 463.238 113.203 461.501V460.541C113.203 458.529 113.5 456.738 114.095 455.168C114.689 453.583 115.497 452.242 116.518 451.144C117.539 450.047 118.697 449.216 119.993 448.653C121.288 448.089 122.63 447.807 124.017 447.807C125.784 447.807 127.309 448.112 128.589 448.721C129.884 449.331 130.944 450.184 131.767 451.282C132.59 452.364 133.199 453.644 133.595 455.122C133.992 456.585 134.19 458.186 134.19 459.923V461.821H115.718V458.369H129.96V458.049C129.9 456.951 129.671 455.884 129.275 454.848C128.894 453.812 128.284 452.958 127.446 452.288C126.607 451.617 125.464 451.282 124.017 451.282C123.056 451.282 122.172 451.487 121.365 451.899C120.557 452.295 119.863 452.89 119.284 453.682C118.705 454.475 118.255 455.442 117.935 456.585C117.615 457.729 117.455 459.047 117.455 460.541V461.501C117.455 462.674 117.615 463.779 117.935 464.816C118.271 465.837 118.751 466.736 119.376 467.513C120.016 468.291 120.785 468.9 121.685 469.342C122.599 469.784 123.635 470.005 124.794 470.005C126.287 470.005 127.552 469.7 128.589 469.091C129.625 468.481 130.532 467.666 131.309 466.645L133.87 468.679C133.336 469.487 132.658 470.257 131.835 470.988C131.012 471.72 129.999 472.314 128.795 472.771C127.606 473.229 126.196 473.457 124.565 473.457Z" fill="black"/>
<line id="Line 4" y1="522.5" x2="772" y2="522.5" stroke="#E5E5E5" stroke-width="5"/>
</g>
<g id="option_2">
<rect id="Rectangle 2" y="251" width="772" height="137" fill="white"/>
<path id="Udder" d="M58.9072 302.714H63.2965V325.232C63.2965 327.732 62.7403 329.812 61.6277 331.473C60.5151 333.135 59.0367 334.384 57.1925 335.223C55.3636 336.046 53.3747 336.457 51.2257 336.457C48.9701 336.457 46.9278 336.046 45.0988 335.223C43.2852 334.384 41.8449 333.135 40.778 331.473C39.7264 329.812 39.2006 327.732 39.2006 325.232V302.714H43.5671V325.232C43.5671 326.97 43.8872 328.402 44.5273 329.53C45.1674 330.658 46.059 331.496 47.2021 332.045C48.3604 332.594 49.7016 332.868 51.2257 332.868C52.765 332.868 54.1063 332.594 55.2493 332.045C56.4076 331.496 57.3069 330.658 57.947 329.53C58.5871 328.402 58.9072 326.97 58.9072 325.232V302.714ZM85.1749 331.199V300.885H89.4272V336H85.5407L85.1749 331.199ZM68.5318 323.906V323.426C68.5318 321.536 68.7604 319.822 69.2177 318.282C69.6901 316.728 70.3531 315.394 71.2066 314.282C72.0753 313.169 73.1041 312.316 74.2929 311.721C75.4969 311.112 76.8381 310.807 78.3165 310.807C79.8711 310.807 81.2275 311.081 82.3858 311.63C83.5594 312.163 84.5501 312.948 85.3578 313.984C86.1808 315.006 86.8286 316.24 87.301 317.688C87.7735 319.136 88.1012 320.774 88.2841 322.603V324.706C88.1164 326.52 87.7888 328.151 87.301 329.599C86.8286 331.047 86.1808 332.281 85.3578 333.302C84.5501 334.323 83.5594 335.108 82.3858 335.657C81.2123 336.191 79.8406 336.457 78.2708 336.457C76.8229 336.457 75.4969 336.145 74.2929 335.52C73.1041 334.895 72.0753 334.019 71.2066 332.891C70.3531 331.763 69.6901 330.437 69.2177 328.913C68.7604 327.374 68.5318 325.705 68.5318 323.906ZM72.784 323.426V323.906C72.784 325.141 72.906 326.299 73.1498 327.381C73.4089 328.463 73.8052 329.416 74.3386 330.239C74.872 331.062 75.5503 331.71 76.3733 332.182C77.1963 332.639 78.1793 332.868 79.3224 332.868C80.7246 332.868 81.8753 332.571 82.7745 331.976C83.6889 331.382 84.4205 330.597 84.9692 329.622C85.5179 328.646 85.9446 327.587 86.2494 326.444V320.934C86.0665 320.096 85.7998 319.288 85.4493 318.511C85.114 317.718 84.672 317.017 84.1233 316.408C83.5899 315.783 82.9269 315.288 82.1344 314.922C81.3571 314.556 80.435 314.373 79.3681 314.373C78.2098 314.373 77.2115 314.617 76.3733 315.105C75.5503 315.577 74.872 316.232 74.3386 317.071C73.8052 317.894 73.4089 318.854 73.1498 319.951C72.906 321.033 72.784 322.192 72.784 323.426ZM111.603 331.199V300.885H115.855V336H111.969L111.603 331.199ZM94.9596 323.906V323.426C94.9596 321.536 95.1882 319.822 95.6455 318.282C96.1179 316.728 96.7809 315.394 97.6344 314.282C98.5031 313.169 99.5319 312.316 100.721 311.721C101.925 311.112 103.266 310.807 104.744 310.807C106.299 310.807 107.655 311.081 108.814 311.63C109.987 312.163 110.978 312.948 111.786 313.984C112.609 315.006 113.256 316.24 113.729 317.688C114.201 319.136 114.529 320.774 114.712 322.603V324.706C114.544 326.52 114.217 328.151 113.729 329.599C113.256 331.047 112.609 332.281 111.786 333.302C110.978 334.323 109.987 335.108 108.814 335.657C107.64 336.191 106.268 336.457 104.699 336.457C103.251 336.457 101.925 336.145 100.721 335.52C99.5319 334.895 98.5031 334.019 97.6344 332.891C96.7809 331.763 96.1179 330.437 95.6455 328.913C95.1882 327.374 94.9596 325.705 94.9596 323.906ZM99.2118 323.426V323.906C99.2118 325.141 99.3338 326.299 99.5776 327.381C99.8367 328.463 100.233 329.416 100.766 330.239C101.3 331.062 101.978 331.71 102.801 332.182C103.624 332.639 104.607 332.868 105.75 332.868C107.152 332.868 108.303 332.571 109.202 331.976C110.117 331.382 110.848 330.597 111.397 329.622C111.946 328.646 112.372 327.587 112.677 326.444V320.934C112.494 320.096 112.228 319.288 111.877 318.511C111.542 317.718 111.1 317.017 110.551 316.408C110.018 315.783 109.355 315.288 108.562 314.922C107.785 314.556 106.863 314.373 105.796 314.373C104.638 314.373 103.639 314.617 102.801 315.105C101.978 315.577 101.3 316.232 100.766 317.071C100.233 317.894 99.8367 318.854 99.5776 319.951C99.3338 321.033 99.2118 322.192 99.2118 323.426ZM132.704 336.457C130.982 336.457 129.419 336.168 128.017 335.588C126.63 334.994 125.434 334.163 124.428 333.097C123.437 332.03 122.675 330.765 122.142 329.302C121.608 327.838 121.342 326.238 121.342 324.501V323.541C121.342 321.529 121.639 319.738 122.233 318.168C122.828 316.583 123.635 315.242 124.657 314.144C125.678 313.047 126.836 312.216 128.132 311.653C129.427 311.089 130.768 310.807 132.155 310.807C133.923 310.807 135.447 311.112 136.727 311.721C138.023 312.331 139.082 313.184 139.905 314.282C140.728 315.364 141.338 316.644 141.734 318.122C142.13 319.585 142.329 321.186 142.329 322.923V324.821H123.856V321.369H138.099V321.049C138.038 319.951 137.81 318.884 137.413 317.848C137.032 316.812 136.423 315.958 135.584 315.288C134.746 314.617 133.603 314.282 132.155 314.282C131.195 314.282 130.311 314.487 129.503 314.899C128.695 315.295 128.002 315.89 127.423 316.682C126.844 317.475 126.394 318.442 126.074 319.585C125.754 320.729 125.594 322.047 125.594 323.541V324.501C125.594 325.674 125.754 326.779 126.074 327.816C126.409 328.837 126.889 329.736 127.514 330.513C128.154 331.291 128.924 331.9 129.823 332.342C130.738 332.784 131.774 333.005 132.932 333.005C134.426 333.005 135.691 332.7 136.727 332.091C137.764 331.481 138.671 330.666 139.448 329.645L142.008 331.679C141.475 332.487 140.797 333.257 139.974 333.988C139.151 334.72 138.137 335.314 136.933 335.771C135.744 336.229 134.335 336.457 132.704 336.457ZM151.496 315.15V336H147.267V311.264H151.382L151.496 315.15ZM159.223 311.127L159.2 315.059C158.85 314.983 158.514 314.937 158.194 314.922C157.89 314.891 157.539 314.876 157.143 314.876C156.167 314.876 155.306 315.028 154.559 315.333C153.813 315.638 153.18 316.065 152.662 316.614C152.144 317.162 151.732 317.818 151.427 318.58C151.138 319.326 150.947 320.149 150.856 321.049L149.667 321.734C149.667 320.241 149.812 318.839 150.101 317.528C150.406 316.217 150.871 315.059 151.496 314.053C152.121 313.032 152.913 312.239 153.874 311.675C154.849 311.096 156.007 310.807 157.348 310.807C157.653 310.807 158.004 310.845 158.4 310.921C158.796 310.982 159.071 311.051 159.223 311.127Z" fill="black"/>
<line id="Line 2" y1="385.5" x2="772" y2="385.5" stroke="#E5E5E5" stroke-width="5"/>
</g>
<g id="option_3">
<rect id="Rectangle 1" y="114" width="772" height="137" fill="white"/>
<path id="Spots" d="M57.604 190.587C57.604 189.81 57.4821 189.124 57.2383 188.529C57.0097 187.92 56.5981 187.371 56.0037 186.883C55.4246 186.396 54.6168 185.931 53.5804 185.489C52.5593 185.047 51.2638 184.597 49.694 184.14C48.048 183.652 46.562 183.111 45.236 182.517C43.9101 181.907 42.7746 181.214 41.8297 180.437C40.8847 179.659 40.1608 178.768 39.6578 177.762C39.1549 176.756 38.9034 175.605 38.9034 174.31C38.9034 173.014 39.1701 171.818 39.7036 170.72C40.237 169.623 40.999 168.671 41.9897 167.863C42.9956 167.04 44.192 166.4 45.5789 165.942C46.9659 165.485 48.5128 165.257 50.2198 165.257C52.7193 165.257 54.8378 165.737 56.5753 166.697C58.328 167.642 59.6616 168.884 60.576 170.423C61.4905 171.947 61.9477 173.578 61.9477 175.316H57.5583C57.5583 174.066 57.2916 172.961 56.7582 172.001C56.2247 171.025 55.417 170.263 54.3349 169.715C53.2528 169.151 51.8811 168.869 50.2198 168.869C48.65 168.869 47.3545 169.105 46.3334 169.577C45.3122 170.05 44.5502 170.69 44.0472 171.498C43.5595 172.305 43.3157 173.228 43.3157 174.264C43.3157 174.965 43.4604 175.605 43.75 176.184C44.0548 176.748 44.5197 177.274 45.1446 177.762C45.7847 178.249 46.5925 178.699 47.5679 179.111C48.5585 179.522 49.7397 179.918 51.1114 180.299C53.0013 180.833 54.6321 181.427 56.0037 182.083C57.3754 182.738 58.5033 183.477 59.3872 184.3C60.2865 185.108 60.9494 186.03 61.3762 187.066C61.8182 188.087 62.0392 189.246 62.0392 190.541C62.0392 191.898 61.7648 193.125 61.2162 194.222C60.6675 195.319 59.8826 196.257 58.8614 197.034C57.8403 197.811 56.6134 198.413 55.1807 198.84C53.7633 199.251 52.1783 199.457 50.4256 199.457C48.8862 199.457 47.3698 199.244 45.8761 198.817C44.3978 198.39 43.0489 197.75 41.8297 196.897C40.6256 196.043 39.6578 194.992 38.9263 193.742C38.2099 192.477 37.8518 191.014 37.8518 189.352H42.2412C42.2412 190.496 42.4622 191.479 42.9042 192.302C43.3461 193.109 43.9482 193.78 44.7102 194.313C45.4875 194.847 46.3638 195.243 47.3393 195.502C48.3299 195.746 49.3587 195.868 50.4256 195.868C51.9649 195.868 53.268 195.655 54.3349 195.228C55.4017 194.801 56.2095 194.191 56.7582 193.399C57.3221 192.606 57.604 191.669 57.604 190.587ZM71.2523 179.019V208.51H67.0001V174.264H70.8865L71.2523 179.019ZM87.9183 186.426V186.906C87.9183 188.705 87.7049 190.374 87.2782 191.913C86.8514 193.437 86.2266 194.763 85.4035 195.891C84.5958 197.019 83.5975 197.895 82.4087 198.52C81.2199 199.145 79.8558 199.457 78.3165 199.457C76.7467 199.457 75.3598 199.198 74.1557 198.68C72.9517 198.162 71.9305 197.407 71.0923 196.417C70.254 195.426 69.5834 194.237 69.0805 192.85C68.5928 191.463 68.2575 189.901 68.0746 188.164V185.603C68.2575 183.774 68.6004 182.136 69.1033 180.688C69.6063 179.24 70.2693 178.006 71.0923 176.984C71.9305 175.948 72.9441 175.163 74.1329 174.63C75.3217 174.081 76.6933 173.807 78.2479 173.807C79.8025 173.807 81.1818 174.112 82.3858 174.721C83.5899 175.316 84.6034 176.169 85.4264 177.282C86.2494 178.394 86.8667 179.728 87.2782 181.282C87.7049 182.822 87.9183 184.536 87.9183 186.426ZM83.6661 186.906V186.426C83.6661 185.192 83.5365 184.033 83.2774 182.951C83.0183 181.854 82.6145 180.894 82.0658 180.071C81.5323 179.232 80.8465 178.577 80.0083 178.105C79.17 177.617 78.1717 177.373 77.0134 177.373C75.9465 177.373 75.0168 177.556 74.2243 177.922C73.447 178.288 72.784 178.783 72.2354 179.408C71.6867 180.017 71.2371 180.718 70.8865 181.511C70.5512 182.288 70.2998 183.096 70.1321 183.934V189.855C70.4369 190.922 70.8637 191.928 71.4124 192.873C71.961 193.803 72.6926 194.557 73.6071 195.136C74.5215 195.7 75.6722 195.982 77.0591 195.982C78.2022 195.982 79.1852 195.746 80.0083 195.274C80.8465 194.786 81.5323 194.123 82.0658 193.285C82.6145 192.446 83.0183 191.486 83.2774 190.404C83.5365 189.307 83.6661 188.141 83.6661 186.906ZM92.1934 186.906V186.38C92.1934 184.597 92.4525 182.944 92.9707 181.42C93.4889 179.88 94.2357 178.547 95.2111 177.419C96.1865 176.276 97.3677 175.392 98.7546 174.767C100.142 174.127 101.696 173.807 103.418 173.807C105.156 173.807 106.718 174.127 108.105 174.767C109.507 175.392 110.696 176.276 111.671 177.419C112.662 178.547 113.416 179.88 113.935 181.42C114.453 182.944 114.712 184.597 114.712 186.38V186.906C114.712 188.689 114.453 190.343 113.935 191.867C113.416 193.391 112.662 194.725 111.671 195.868C110.696 196.996 109.515 197.88 108.128 198.52C106.756 199.145 105.202 199.457 103.464 199.457C101.727 199.457 100.164 199.145 98.7775 198.52C97.3906 197.88 96.2018 196.996 95.2111 195.868C94.2357 194.725 93.4889 193.391 92.9707 191.867C92.4525 190.343 92.1934 188.689 92.1934 186.906ZM96.4228 186.38V186.906C96.4228 188.141 96.5675 189.307 96.8571 190.404C97.1467 191.486 97.5811 192.446 98.1602 193.285C98.7546 194.123 99.4938 194.786 100.378 195.274C101.262 195.746 102.291 195.982 103.464 195.982C104.622 195.982 105.636 195.746 106.505 195.274C107.389 194.786 108.12 194.123 108.699 193.285C109.279 192.446 109.713 191.486 110.002 190.404C110.307 189.307 110.46 188.141 110.46 186.906V186.38C110.46 185.161 110.307 184.011 110.002 182.928C109.713 181.831 109.271 180.863 108.676 180.025C108.097 179.172 107.366 178.501 106.482 178.013C105.613 177.525 104.592 177.282 103.418 177.282C102.26 177.282 101.239 177.525 100.355 178.013C99.4862 178.501 98.7546 179.172 98.1602 180.025C97.5811 180.863 97.1467 181.831 96.8571 182.928C96.5675 184.011 96.4228 185.161 96.4228 186.38ZM130.372 174.264V177.51H116.998V174.264H130.372ZM121.525 168.251H125.754V192.873C125.754 193.711 125.884 194.344 126.143 194.771C126.402 195.197 126.737 195.479 127.149 195.617C127.56 195.754 128.002 195.822 128.474 195.822C128.825 195.822 129.191 195.792 129.572 195.731C129.968 195.655 130.265 195.594 130.463 195.548L130.486 199C130.151 199.107 129.709 199.206 129.16 199.297C128.627 199.404 127.979 199.457 127.217 199.457C126.181 199.457 125.228 199.251 124.359 198.84C123.491 198.428 122.797 197.743 122.279 196.782C121.776 195.807 121.525 194.496 121.525 192.85V168.251ZM149.736 192.439C149.736 191.829 149.598 191.265 149.324 190.747C149.065 190.214 148.524 189.734 147.701 189.307C146.893 188.865 145.674 188.484 144.043 188.164C142.671 187.874 141.429 187.531 140.317 187.135C139.219 186.739 138.282 186.259 137.505 185.695C136.743 185.131 136.156 184.468 135.744 183.706C135.333 182.944 135.127 182.052 135.127 181.031C135.127 180.055 135.341 179.133 135.767 178.265C136.209 177.396 136.827 176.626 137.619 175.956C138.427 175.285 139.395 174.759 140.522 174.378C141.65 173.997 142.908 173.807 144.295 173.807C146.276 173.807 147.968 174.157 149.37 174.858C150.772 175.559 151.846 176.497 152.593 177.67C153.34 178.829 153.713 180.116 153.713 181.534H149.484C149.484 180.848 149.278 180.185 148.867 179.545C148.471 178.89 147.884 178.349 147.107 177.922C146.344 177.495 145.407 177.282 144.295 177.282C143.121 177.282 142.168 177.465 141.437 177.83C140.721 178.181 140.195 178.63 139.859 179.179C139.539 179.728 139.379 180.307 139.379 180.917C139.379 181.374 139.456 181.785 139.608 182.151C139.776 182.502 140.065 182.829 140.477 183.134C140.888 183.424 141.467 183.698 142.214 183.957C142.961 184.216 143.914 184.475 145.072 184.734C147.099 185.192 148.768 185.74 150.079 186.38C151.389 187.021 152.365 187.806 153.005 188.735C153.645 189.665 153.965 190.793 153.965 192.119C153.965 193.201 153.736 194.191 153.279 195.091C152.837 195.99 152.189 196.767 151.336 197.423C150.498 198.063 149.492 198.566 148.318 198.931C147.16 199.282 145.857 199.457 144.409 199.457C142.229 199.457 140.385 199.069 138.876 198.291C137.368 197.514 136.225 196.508 135.447 195.274C134.67 194.039 134.281 192.736 134.281 191.364H138.534C138.594 192.523 138.93 193.445 139.539 194.131C140.149 194.801 140.896 195.281 141.78 195.571C142.664 195.845 143.54 195.982 144.409 195.982C145.567 195.982 146.535 195.83 147.312 195.525C148.105 195.22 148.707 194.801 149.118 194.268C149.53 193.734 149.736 193.125 149.736 192.439Z" fill="black"/>
<line id="Line 1" y1="248.5" x2="772" y2="248.5" stroke="#E5E5E5" stroke-width="5"/>
</g>
<line id="Line 3" x1="3" y1="111.5" x2="775" y2="111.5" stroke="#E5E5E5" stroke-width="5"/>
<path id="close" d="M720.455 22C741.221 22 758 38.7757 758 59.4551C758 80.2212 741.224 97 720.455 97C699.779 97 683 80.2243 683 59.4551C683 38.7788 699.776 22 720.455 22V22ZM720.455 55.5546L731.881 44.1288L735.871 48.0294L724.446 59.4551L735.871 70.8809L731.881 74.8715L720.455 63.4458L709.029 74.8715L705.129 70.8809L716.554 59.4551L705.129 48.0294L709.029 44.1288L720.455 55.5546ZM720.455 23.8128C700.775 23.8128 684.816 39.772 684.816 59.452C684.816 79.2219 700.775 95.1819 720.455 95.1819C740.225 95.1819 756.185 79.2226 756.185 59.452C756.185 39.772 740.226 23.8128 720.455 23.8128V23.8128Z" fill="black"/>
</g>
</svg>
